<?xml version="1.0" standalone="no"?>
<!DOCTYPE svg PUBLIC "-//W3C//DTD SVG 20010904//EN"
 "http://www.w3.org/TR/2001/REC-SVG-20010904/DTD/svg10.dtd">
<svg version="1.0" xmlns="http://www.w3.org/2000/svg"
 width="768.000000pt" height="768.000000pt" viewBox="0 0 768.000000 768.000000"
 preserveAspectRatio="xMidYMid meet">
<metadata>
Created by potrace 1.14, written by Peter Selinger 2001-2017
</metadata>
<g transform="translate(0.000000,768.000000) scale(0.100000,-0.100000)"
fill="#000000" stroke="none">
<path d="M4715 7673 c-187 -44 -508 -237 -652 -392 -83 -89 -192 -276 -238
-406 -9 -27 -21 -59 -25 -70 -14 -32 -24 -69 -22 -77 1 -5 -2 -8 -6 -8 -4 0
-9 -11 -10 -26 -1 -14 -6 -33 -12 -43 -5 -10 -6 -21 -3 -25 3 -3 1 -6 -6 -6
-7 0 -10 -4 -7 -9 4 -5 2 -20 -3 -33 -5 -14 -12 -42 -15 -62 -4 -21 -8 -41
-10 -45 -4 -6 -8 -26 -22 -121 -5 -34 -17 -54 -32 -56 -14 -1 -95 -26 -121
-36 -14 -6 -28 -12 -31 -13 -28 -8 -90 -41 -142 -76 -35 -23 -74 -42 -88 -42
-14 0 -83 16 -155 36 -71 21 -146 40 -165 43 -19 3 -38 8 -41 10 -4 2 -24 6
-45 10 -22 3 -49 7 -61 10 -77 15 -122 22 -188 29 -27 3 -70 9 -95 12 -25 4
-151 7 -280 7 -208 0 -293 -4 -380 -19 -14 -2 -42 -7 -64 -10 -37 -6 -55 -10
-94 -19 -9 -2 -39 -9 -67 -15 -138 -31 -409 -139 -509 -204 -11 -6 -45 -27
-75 -46 -31 -19 -58 -37 -61 -41 -3 -3 -21 -17 -40 -30 -80 -54 -197 -162
-288 -266 -54 -60 -181 -233 -216 -294 -64 -110 -188 -372 -188 -397 0 -4 -3
-12 -8 -18 -16 -20 -105 -325 -114 -390 -2 -11 -6 -36 -9 -55 -12 -63 -18 -95
-22 -125 -3 -16 -7 -46 -10 -65 -15 -93 -19 -174 -18 -400 0 -135 3 -270 7
-300 3 -30 8 -81 11 -113 2 -31 6 -61 9 -66 4 -5 8 -29 10 -53 5 -48 29 -169
52 -267 9 -36 17 -73 19 -83 14 -72 158 -486 173 -498 4 -3 8 -12 10 -20 5
-25 142 -300 183 -368 22 -35 39 -66 39 -68 0 -2 42 -67 94 -144 111 -165 185
-258 331 -418 94 -103 296 -287 336 -306 10 -5 19 -12 19 -16 0 -3 39 -33 88
-66 48 -32 89 -62 90 -66 2 -5 7 -8 12 -8 4 0 38 -18 74 -40 148 -90 386 -192
526 -225 3 0 14 -4 25 -8 11 -3 36 -8 55 -11 19 -2 42 -7 50 -10 8 -3 33 -8
55 -12 22 -3 51 -8 65 -10 51 -9 328 -11 395 -3 106 13 220 37 315 66 47 15
87 27 90 27 3 1 10 4 16 8 18 12 64 -1 98 -26 47 -36 246 -133 246 -121 0 3
11 0 25 -5 14 -5 36 -12 48 -14 12 -3 33 -8 47 -11 14 -3 61 -8 105 -10 44 -3
82 -5 85 -6 3 -1 10 0 15 1 6 1 28 3 50 5 107 7 274 55 345 100 19 12 45 25
58 29 12 4 22 11 22 15 0 17 51 31 71 21 10 -6 19 -8 19 -5 0 3 15 -1 34 -9
19 -8 37 -12 40 -8 3 3 6 3 6 -1 0 -9 -24 -61 -30 -67 -9 -8 -56 -118 -78
-185 -52 -153 -77 -379 -48 -440 22 -46 59 -69 115 -71 49 -2 63 5 141 75 25
23 51 41 58 41 6 0 12 4 12 8 0 7 121 74 140 78 3 0 12 3 20 7 22 9 89 25 135
33 58 10 240 5 240 -6 0 -1 11 -3 25 -6 14 -2 47 -11 75 -20 105 -34 136 -26
229 61 34 33 204 79 241 66 6 -2 19 -3 30 -3 55 4 190 -58 235 -108 18 -21 54
-33 97 -35 24 -1 46 9 80 37 139 110 194 141 315 178 76 24 100 27 205 25 65
-1 127 -5 138 -8 11 -3 46 -13 79 -22 32 -8 65 -19 74 -24 19 -11 91 7 116 28
31 27 53 83 51 126 -2 22 -12 71 -24 108 -37 125 -43 252 -17 362 1 6 6 26 11
45 17 76 87 196 159 275 20 22 42 56 48 76 11 39 4 109 -12 109 -6 0 -10 5
-10 11 0 6 -13 27 -30 45 -62 71 -95 173 -87 271 3 32 6 58 7 58 1 0 3 10 6
23 7 36 39 94 83 147 23 27 44 64 47 82 7 35 -3 91 -18 111 -6 6 -8 12 -4 12
3 0 1 11 -4 25 -28 74 -35 257 -14 340 36 138 95 252 178 342 73 81 76 142 9
214 -23 26 -24 29 -13 85 6 33 13 70 15 84 1 14 5 43 9 65 19 126 27 256 27
445 0 174 -10 337 -26 420 -3 14 -7 43 -10 65 -4 38 -8 61 -20 115 -7 32 -14
67 -20 104 -3 16 -10 37 -16 47 -5 10 -8 22 -7 26 2 10 -28 114 -49 168 -8 22
-16 47 -18 55 -2 8 -11 33 -20 55 -21 48 -37 89 -36 92 0 2 -29 62 -66 135
-58 116 -189 325 -248 397 -67 80 -166 183 -236 245 -54 48 -225 176 -235 176
-4 0 -22 11 -41 26 -18 14 -33 21 -33 17 0 -4 -4 -3 -8 2 -20 28 -356 175
-400 175 -10 0 -22 3 -26 7 -3 4 -13 8 -21 9 -8 1 -44 10 -81 19 -83 21 -112
26 -214 41 -136 20 -522 26 -655 10 -38 -4 -83 -9 -100 -11 -16 -1 -52 -6 -80
-10 -47 -7 -59 -9 -102 -19 -10 -2 -38 -7 -63 -12 -47 -8 -55 -10 -67 -14 -5
-1 -12 -3 -18 -4 -29 -5 -83 -18 -105 -27 -14 -5 -34 -10 -45 -12 -11 -2 -39
-9 -62 -17 -43 -13 -49 -12 -98 20 -16 11 -37 23 -45 27 -8 3 -17 9 -20 13 -7
8 -129 60 -143 60 -7 0 -20 7 -29 14 -17 12 -16 17 13 77 50 107 74 149 81
149 5 0 8 5 8 11 0 11 46 79 85 128 97 119 193 211 319 303 50 37 96 72 103
78 7 5 15 10 18 10 3 0 29 15 58 33 82 52 173 97 181 90 3 -3 6 -1 6 5 0 7 9
12 20 12 11 0 20 5 20 10 0 6 6 10 14 10 8 0 35 9 59 19 l45 19 -47 50 c-25
27 -77 84 -116 126 -38 42 -103 110 -142 152 -40 42 -73 78 -73 81 0 9 -34 32
-45 32 -5 -1 -19 -3 -30 -6z"/>
</g>
</svg>
